<svg width="421" height="120" viewBox="0 0 421 120" fill="none" xmlns="http://www.w3.org/2000/svg">
<path d="M30.5176 66.4375H20.1172V93H6.39648V21.9062H30.2246C34.1634 21.9062 37.7279 22.3783 40.918 23.3223C44.1081 24.2337 46.8262 25.5846 49.0723 27.375C51.3509 29.1654 53.0924 31.3952 54.2969 34.0645C55.5339 36.7337 56.1523 39.8262 56.1523 43.3418C56.1523 45.8809 55.8431 48.1758 55.2246 50.2266C54.6387 52.2448 53.776 54.0677 52.6367 55.6953C51.5299 57.2904 50.179 58.6901 48.584 59.8945C47.0215 61.099 45.2637 62.1406 43.3105 63.0195L58.5938 92.3652V93H43.8965L30.5176 66.4375ZM20.1172 55.3047H30.2734C34.1471 55.3047 37.1257 54.3281 39.209 52.375C41.3249 50.3893 42.3828 47.6875 42.3828 44.2695C42.3828 40.7214 41.3574 37.9707 39.3066 36.0176C37.2559 34.0319 34.2285 33.0391 30.2246 33.0391H20.1172V55.3047ZM65.0879 66.0957C65.0879 62.2546 65.6413 58.7064 66.748 55.4512C67.8548 52.1634 69.4661 49.3151 71.582 46.9062C73.7305 44.4974 76.3346 42.6094 79.3945 41.2422C82.487 39.875 86.0189 39.1914 89.9902 39.1914C93.9616 39.1914 97.4935 39.875 100.586 41.2422C103.678 42.6094 106.283 44.4974 108.398 46.9062C110.547 49.3151 112.174 52.1634 113.281 55.4512C114.388 58.7064 114.941 62.2546 114.941 66.0957V67.1211C114.941 70.9948 114.388 74.5755 113.281 77.8633C112.174 81.1185 110.563 83.9505 108.447 86.3594C106.331 88.7682 103.727 90.6562 100.635 92.0234C97.5423 93.3581 94.0267 94.0254 90.0879 94.0254C86.1165 94.0254 82.5684 93.3581 79.4434 92.0234C76.3509 90.6562 73.7305 88.7682 71.582 86.3594C69.4661 83.9505 67.8548 81.1185 66.748 77.8633C65.6413 74.5755 65.0879 70.9948 65.0879 67.1211V66.0957ZM78.6621 67.1211C78.6621 69.3346 78.8737 71.418 79.2969 73.3711C79.7201 75.2917 80.3874 76.9844 81.2988 78.4492C82.2103 79.8815 83.3822 81.0208 84.8145 81.8672C86.2793 82.7135 88.0371 83.1367 90.0879 83.1367C92.0736 83.1367 93.7826 82.7135 95.2148 81.8672C96.6471 81.0208 97.8027 79.8815 98.6816 78.4492C99.5931 76.9844 100.26 75.2917 100.684 73.3711C101.107 71.418 101.318 69.3346 101.318 67.1211V66.0957C101.318 63.9473 101.107 61.9128 100.684 59.9922C100.26 58.0716 99.5931 56.3789 98.6816 54.9141C97.8027 53.4492 96.6471 52.2936 95.2148 51.4473C93.7826 50.6009 92.041 50.1777 89.9902 50.1777C87.972 50.1777 86.2467 50.6009 84.8145 51.4473C83.3822 52.2936 82.2103 53.4492 81.2988 54.9141C80.3874 56.3789 79.7201 58.0716 79.2969 59.9922C78.8737 61.9128 78.6621 63.9473 78.6621 66.0957V67.1211ZM125.146 66.0957C125.146 62.2546 125.7 58.7064 126.807 55.4512C127.913 52.1634 129.525 49.3151 131.641 46.9062C133.789 44.4974 136.393 42.6094 139.453 41.2422C142.546 39.875 146.077 39.1914 150.049 39.1914C154.02 39.1914 157.552 39.875 160.645 41.2422C163.737 42.6094 166.341 44.4974 168.457 46.9062C170.605 49.3151 172.233 52.1634 173.34 55.4512C174.447 58.7064 175 62.2546 175 66.0957V67.1211C175 70.9948 174.447 74.5755 173.34 77.8633C172.233 81.1185 170.622 83.9505 168.506 86.3594C166.39 88.7682 163.786 90.6562 160.693 92.0234C157.601 93.3581 154.085 94.0254 150.146 94.0254C146.175 94.0254 142.627 93.3581 139.502 92.0234C136.41 90.6562 133.789 88.7682 131.641 86.3594C129.525 83.9505 127.913 81.1185 126.807 77.8633C125.7 74.5755 125.146 70.9948 125.146 67.1211V66.0957ZM138.721 67.1211C138.721 69.3346 138.932 71.418 139.355 73.3711C139.779 75.2917 140.446 76.9844 141.357 78.4492C142.269 79.8815 143.441 81.0208 144.873 81.8672C146.338 82.7135 148.096 83.1367 150.146 83.1367C152.132 83.1367 153.841 82.7135 155.273 81.8672C156.706 81.0208 157.861 79.8815 158.74 78.4492C159.652 76.9844 160.319 75.2917 160.742 73.3711C161.165 71.418 161.377 69.3346 161.377 67.1211V66.0957C161.377 63.9473 161.165 61.9128 160.742 59.9922C160.319 58.0716 159.652 56.3789 158.74 54.9141C157.861 53.4492 156.706 52.2936 155.273 51.4473C153.841 50.6009 152.1 50.1777 150.049 50.1777C148.031 50.1777 146.305 50.6009 144.873 51.4473C143.441 52.2936 142.269 53.4492 141.357 54.9141C140.446 56.3789 139.779 58.0716 139.355 59.9922C138.932 61.9128 138.721 63.9473 138.721 66.0957V67.1211ZM195.508 40.168L195.898 46.5645C196.908 44.2858 198.291 42.4954 200.049 41.1934C201.839 39.8587 204.004 39.1914 206.543 39.1914C210.807 39.1914 213.59 41.0632 214.893 44.8066C215.934 43.0488 217.253 41.6816 218.848 40.7051C220.475 39.696 222.428 39.1914 224.707 39.1914C226.302 39.1914 227.783 39.4844 229.15 40.0703C230.55 40.6562 231.755 41.6003 232.764 42.9023C233.805 44.1719 234.603 45.832 235.156 47.8828C235.742 49.901 236.035 52.375 236.035 55.3047V93H223.682V55.2559C223.682 54.2467 223.568 53.4167 223.34 52.7656C223.145 52.1146 222.868 51.61 222.51 51.252C222.152 50.8613 221.729 50.6009 221.24 50.4707C220.785 50.3079 220.312 50.2266 219.824 50.2266C218.88 50.2266 218.083 50.4544 217.432 50.9102C216.781 51.3333 216.276 51.9193 215.918 52.668V93H203.955V55.207C203.955 54.1979 203.857 53.3678 203.662 52.7168C203.467 52.0658 203.19 51.5612 202.832 51.2031C202.507 50.8451 202.116 50.6009 201.66 50.4707C201.204 50.3079 200.716 50.2266 200.195 50.2266C199.154 50.2266 198.307 50.5195 197.656 51.1055C197.038 51.6914 196.549 52.4727 196.191 53.4492V93H183.838V40.168H195.508ZM293.555 93H279.98V62.1895H259.863V93H246.24V21.9062H259.863V51.0566H279.98V21.9062H293.555V93ZM340.869 85.5781C339.079 88.2148 336.914 90.2819 334.375 91.7793C331.868 93.2767 329.118 94.0254 326.123 94.0254C323.389 94.0254 320.882 93.6022 318.604 92.7559C316.325 91.9095 314.372 90.5749 312.744 88.752C311.117 86.8965 309.847 84.5527 308.936 81.7207C308.057 78.8561 307.617 75.4219 307.617 71.418V40.168H321.191V71.5156C321.191 73.6641 321.338 75.4707 321.631 76.9355C321.956 78.4004 322.461 79.5885 323.145 80.5C323.828 81.3789 324.723 82.0137 325.83 82.4043C326.937 82.7949 328.288 82.9902 329.883 82.9902C332.585 82.9902 334.782 82.4857 336.475 81.4766C338.167 80.4349 339.453 79.0189 340.332 77.2285V40.168H353.955V93H341.65L340.869 85.5781ZM414.844 67.1211C414.844 71.0599 414.404 74.6732 413.525 77.9609C412.679 81.2487 411.393 84.0807 409.668 86.457C407.943 88.8333 405.794 90.6888 403.223 92.0234C400.651 93.3255 397.656 93.9766 394.238 93.9766C391.146 93.9766 388.46 93.4069 386.182 92.2676C383.936 91.0957 381.999 89.4681 380.371 87.3848L379.736 93H367.529V18H381.104V44.9531C382.666 43.1302 384.505 41.7142 386.621 40.7051C388.77 39.696 391.276 39.1914 394.141 39.1914C397.591 39.1914 400.602 39.8587 403.174 41.1934C405.778 42.528 407.943 44.3835 409.668 46.7598C411.393 49.1361 412.679 51.9844 413.525 55.3047C414.404 58.5924 414.844 62.1895 414.844 66.0957V67.1211ZM401.27 66.0957C401.27 63.9473 401.107 61.9128 400.781 59.9922C400.456 58.0716 399.886 56.3952 399.072 54.9629C398.291 53.498 397.217 52.3424 395.85 51.4961C394.482 50.6497 392.773 50.2266 390.723 50.2266C388.249 50.2266 386.23 50.7474 384.668 51.7891C383.138 52.8307 381.95 54.263 381.104 56.0859V77.1309C381.95 78.9538 383.138 80.3861 384.668 81.4277C386.23 82.4694 388.281 82.9902 390.82 82.9902C392.871 82.9902 394.564 82.5996 395.898 81.8184C397.233 81.0046 398.291 79.8978 399.072 78.498C399.886 77.0658 400.456 75.3893 400.781 73.4688C401.107 71.5156 401.27 69.3997 401.27 67.1211V66.0957Z" fill="#88C2F9"/>
<path d="M114.963 115.219H112.402L111.898 117H110.164L112.959 108.469H114.453L117.195 117H115.461L114.963 115.219ZM112.807 113.818H114.576L113.703 110.678L112.807 113.818ZM125.146 117V108.469H127.355C127.922 108.469 128.434 108.566 128.891 108.762C129.352 108.953 129.744 109.223 130.068 109.57C130.396 109.914 130.648 110.326 130.824 110.807C131.004 111.287 131.094 111.814 131.094 112.389V113.092C131.094 113.666 131.004 114.193 130.824 114.674C130.648 115.15 130.4 115.562 130.08 115.91C129.76 116.254 129.375 116.521 128.926 116.713C128.477 116.904 127.98 117 127.438 117H125.146ZM126.805 109.805V115.676H127.438C127.746 115.676 128.021 115.617 128.264 115.5C128.51 115.383 128.717 115.213 128.885 114.99C129.057 114.768 129.188 114.498 129.277 114.182C129.367 113.861 129.412 113.498 129.412 113.092V112.377C129.412 111.994 129.367 111.646 129.277 111.334C129.191 111.018 129.061 110.746 128.885 110.52C128.713 110.293 128.498 110.117 128.24 109.992C127.986 109.867 127.691 109.805 127.355 109.805H126.805ZM136.408 117C136.369 116.922 136.336 116.832 136.309 116.73C136.281 116.629 136.258 116.521 136.238 116.408C136.148 116.506 136.045 116.598 135.928 116.684C135.811 116.77 135.68 116.846 135.535 116.912C135.395 116.975 135.238 117.023 135.066 117.059C134.895 117.098 134.709 117.117 134.51 117.117C134.186 117.117 133.887 117.07 133.613 116.977C133.344 116.883 133.111 116.752 132.916 116.584C132.721 116.416 132.568 116.217 132.459 115.986C132.35 115.752 132.295 115.498 132.295 115.225C132.295 114.557 132.543 114.041 133.039 113.678C133.539 113.311 134.283 113.127 135.271 113.127H136.18V112.752C136.18 112.447 136.08 112.207 135.881 112.031C135.682 111.852 135.395 111.762 135.02 111.762C134.688 111.762 134.445 111.834 134.293 111.979C134.141 112.119 134.064 112.309 134.064 112.547H132.436C132.436 112.277 132.494 112.021 132.611 111.779C132.732 111.537 132.906 111.324 133.133 111.141C133.363 110.957 133.643 110.812 133.971 110.707C134.303 110.598 134.682 110.543 135.107 110.543C135.49 110.543 135.846 110.59 136.174 110.684C136.506 110.777 136.793 110.916 137.035 111.1C137.277 111.283 137.467 111.516 137.604 111.797C137.74 112.074 137.809 112.396 137.809 112.764V115.482C137.809 115.822 137.83 116.104 137.873 116.326C137.916 116.549 137.979 116.74 138.061 116.9V117H136.408ZM134.855 115.857C135.02 115.857 135.172 115.838 135.312 115.799C135.453 115.76 135.58 115.709 135.693 115.646C135.807 115.584 135.904 115.514 135.986 115.436C136.068 115.354 136.133 115.271 136.18 115.189V114.1H135.348C135.094 114.1 134.877 114.125 134.697 114.176C134.518 114.223 134.371 114.291 134.258 114.381C134.145 114.467 134.061 114.572 134.006 114.697C133.951 114.818 133.924 114.951 133.924 115.096C133.924 115.314 134 115.496 134.152 115.641C134.309 115.785 134.543 115.857 134.855 115.857ZM142.643 109.107V110.66H145.01V111.861H142.643V114.586C142.643 114.816 142.668 115.01 142.719 115.166C142.773 115.318 142.85 115.441 142.947 115.535C143.045 115.625 143.162 115.689 143.299 115.729C143.439 115.768 143.596 115.787 143.768 115.787C143.893 115.787 144.02 115.781 144.148 115.77C144.281 115.758 144.406 115.744 144.523 115.729C144.645 115.709 144.756 115.689 144.857 115.67C144.963 115.65 145.053 115.631 145.127 115.611L145.285 116.73C145.172 116.797 145.039 116.855 144.887 116.906C144.734 116.953 144.572 116.992 144.4 117.023C144.229 117.055 144.049 117.078 143.861 117.094C143.678 117.113 143.496 117.123 143.316 117.123C142.969 117.123 142.652 117.078 142.367 116.988C142.086 116.895 141.844 116.752 141.641 116.561C141.441 116.365 141.287 116.119 141.178 115.822C141.068 115.521 141.014 115.162 141.014 114.744V111.861H139.566V110.66H141.014V109.107H142.643ZM150.822 117C150.783 116.922 150.75 116.832 150.723 116.73C150.695 116.629 150.672 116.521 150.652 116.408C150.562 116.506 150.459 116.598 150.342 116.684C150.225 116.77 150.094 116.846 149.949 116.912C149.809 116.975 149.652 117.023 149.48 117.059C149.309 117.098 149.123 117.117 148.924 117.117C148.6 117.117 148.301 117.07 148.027 116.977C147.758 116.883 147.525 116.752 147.33 116.584C147.135 116.416 146.982 116.217 146.873 115.986C146.764 115.752 146.709 115.498 146.709 115.225C146.709 114.557 146.957 114.041 147.453 113.678C147.953 113.311 148.697 113.127 149.686 113.127H150.594V112.752C150.594 112.447 150.494 112.207 150.295 112.031C150.096 111.852 149.809 111.762 149.434 111.762C149.102 111.762 148.859 111.834 148.707 111.979C148.555 112.119 148.479 112.309 148.479 112.547H146.85C146.85 112.277 146.908 112.021 147.025 111.779C147.146 111.537 147.32 111.324 147.547 111.141C147.777 110.957 148.057 110.812 148.385 110.707C148.717 110.598 149.096 110.543 149.521 110.543C149.904 110.543 150.26 110.59 150.588 110.684C150.92 110.777 151.207 110.916 151.449 111.1C151.691 111.283 151.881 111.516 152.018 111.797C152.154 112.074 152.223 112.396 152.223 112.764V115.482C152.223 115.822 152.244 116.104 152.287 116.326C152.33 116.549 152.393 116.74 152.475 116.9V117H150.822ZM149.27 115.857C149.434 115.857 149.586 115.838 149.727 115.799C149.867 115.76 149.994 115.709 150.107 115.646C150.221 115.584 150.318 115.514 150.4 115.436C150.482 115.354 150.547 115.271 150.594 115.189V114.1H149.762C149.508 114.1 149.291 114.125 149.111 114.176C148.932 114.223 148.785 114.291 148.672 114.381C148.559 114.467 148.475 114.572 148.42 114.697C148.365 114.818 148.338 114.951 148.338 115.096C148.338 115.314 148.414 115.496 148.566 115.641C148.723 115.785 148.957 115.857 149.27 115.857ZM159.781 113.895C159.781 114.367 159.729 114.801 159.623 115.195C159.521 115.59 159.367 115.93 159.16 116.215C158.953 116.5 158.695 116.723 158.387 116.883C158.078 117.039 157.719 117.117 157.309 117.117C156.938 117.117 156.615 117.049 156.342 116.912C156.072 116.771 155.84 116.576 155.645 116.326L155.568 117H154.104V108H155.732V111.234C155.92 111.016 156.141 110.846 156.395 110.725C156.652 110.604 156.953 110.543 157.297 110.543C157.711 110.543 158.072 110.623 158.381 110.783C158.693 110.943 158.953 111.166 159.16 111.451C159.367 111.736 159.521 112.078 159.623 112.477C159.729 112.871 159.781 113.303 159.781 113.771V113.895ZM158.152 113.771C158.152 113.514 158.133 113.27 158.094 113.039C158.055 112.809 157.986 112.607 157.889 112.436C157.795 112.26 157.666 112.121 157.502 112.02C157.338 111.918 157.133 111.867 156.887 111.867C156.59 111.867 156.348 111.93 156.16 112.055C155.977 112.18 155.834 112.352 155.732 112.57V115.096C155.834 115.314 155.977 115.486 156.16 115.611C156.348 115.736 156.594 115.799 156.898 115.799C157.145 115.799 157.348 115.752 157.508 115.658C157.668 115.561 157.795 115.428 157.889 115.26C157.986 115.088 158.055 114.887 158.094 114.656C158.133 114.422 158.152 114.168 158.152 113.895V113.771ZM165.236 117C165.197 116.922 165.164 116.832 165.137 116.73C165.109 116.629 165.086 116.521 165.066 116.408C164.977 116.506 164.873 116.598 164.756 116.684C164.639 116.77 164.508 116.846 164.363 116.912C164.223 116.975 164.066 117.023 163.895 117.059C163.723 117.098 163.537 117.117 163.338 117.117C163.014 117.117 162.715 117.07 162.441 116.977C162.172 116.883 161.939 116.752 161.744 116.584C161.549 116.416 161.396 116.217 161.287 115.986C161.178 115.752 161.123 115.498 161.123 115.225C161.123 114.557 161.371 114.041 161.867 113.678C162.367 113.311 163.111 113.127 164.1 113.127H165.008V112.752C165.008 112.447 164.908 112.207 164.709 112.031C164.51 111.852 164.223 111.762 163.848 111.762C163.516 111.762 163.273 111.834 163.121 111.979C162.969 112.119 162.893 112.309 162.893 112.547H161.264C161.264 112.277 161.322 112.021 161.439 111.779C161.561 111.537 161.734 111.324 161.961 111.141C162.191 110.957 162.471 110.812 162.799 110.707C163.131 110.598 163.51 110.543 163.936 110.543C164.318 110.543 164.674 110.59 165.002 110.684C165.334 110.777 165.621 110.916 165.863 111.1C166.105 111.283 166.295 111.516 166.432 111.797C166.568 112.074 166.637 112.396 166.637 112.764V115.482C166.637 115.822 166.658 116.104 166.701 116.326C166.744 116.549 166.807 116.74 166.889 116.9V117H165.236ZM163.684 115.857C163.848 115.857 164 115.838 164.141 115.799C164.281 115.76 164.408 115.709 164.521 115.646C164.635 115.584 164.732 115.514 164.814 115.436C164.896 115.354 164.961 115.271 165.008 115.189V114.1H164.176C163.922 114.1 163.705 114.125 163.525 114.176C163.346 114.223 163.199 114.291 163.086 114.381C162.973 114.467 162.889 114.572 162.834 114.697C162.779 114.818 162.752 114.951 162.752 115.096C162.752 115.314 162.828 115.496 162.98 115.641C163.137 115.785 163.371 115.857 163.684 115.857ZM172.572 115.26C172.572 115.162 172.549 115.076 172.502 115.002C172.459 114.928 172.379 114.859 172.262 114.797C172.148 114.73 171.996 114.67 171.805 114.615C171.613 114.561 171.371 114.506 171.078 114.451C170.707 114.377 170.367 114.285 170.059 114.176C169.754 114.062 169.492 113.928 169.273 113.771C169.055 113.611 168.883 113.428 168.758 113.221C168.637 113.014 168.576 112.775 168.576 112.506C168.576 112.244 168.639 111.994 168.764 111.756C168.889 111.518 169.068 111.309 169.303 111.129C169.537 110.949 169.822 110.807 170.158 110.701C170.494 110.596 170.873 110.543 171.295 110.543C171.736 110.543 172.133 110.596 172.484 110.701C172.836 110.803 173.133 110.945 173.375 111.129C173.621 111.309 173.809 111.523 173.938 111.773C174.066 112.023 174.131 112.295 174.131 112.588H172.502C172.502 112.342 172.402 112.137 172.203 111.973C172.004 111.805 171.701 111.721 171.295 111.721C170.916 111.721 170.629 111.789 170.434 111.926C170.242 112.062 170.146 112.23 170.146 112.43C170.146 112.523 170.166 112.611 170.205 112.693C170.244 112.771 170.312 112.844 170.41 112.91C170.512 112.973 170.648 113.031 170.82 113.086C170.992 113.137 171.211 113.182 171.477 113.221C171.859 113.283 172.215 113.363 172.543 113.461C172.871 113.559 173.154 113.686 173.393 113.842C173.631 113.994 173.816 114.182 173.949 114.404C174.086 114.623 174.154 114.885 174.154 115.189C174.154 115.471 174.086 115.73 173.949 115.969C173.816 116.203 173.625 116.406 173.375 116.578C173.129 116.75 172.83 116.885 172.479 116.982C172.127 117.076 171.734 117.123 171.301 117.123C170.824 117.123 170.402 117.061 170.035 116.936C169.672 116.811 169.367 116.648 169.121 116.449C168.875 116.246 168.688 116.018 168.559 115.764C168.434 115.506 168.371 115.248 168.371 114.99H169.924C169.936 115.162 169.982 115.311 170.064 115.436C170.146 115.557 170.252 115.656 170.381 115.734C170.51 115.809 170.656 115.863 170.82 115.898C170.988 115.934 171.16 115.951 171.336 115.951C171.738 115.951 172.045 115.887 172.256 115.758C172.467 115.629 172.572 115.463 172.572 115.26ZM178.766 117.117C178.277 117.117 177.834 117.037 177.436 116.877C177.037 116.717 176.695 116.5 176.41 116.227C176.125 115.949 175.904 115.625 175.748 115.254C175.596 114.879 175.52 114.479 175.52 114.053V113.818C175.52 113.334 175.596 112.893 175.748 112.494C175.9 112.092 176.113 111.746 176.387 111.457C176.66 111.168 176.984 110.943 177.359 110.783C177.734 110.623 178.143 110.543 178.584 110.543C179.041 110.543 179.447 110.619 179.803 110.771C180.162 110.92 180.465 111.131 180.711 111.404C180.961 111.678 181.15 112.008 181.279 112.395C181.408 112.777 181.473 113.201 181.473 113.666V114.357H177.172C177.203 114.572 177.266 114.77 177.359 114.949C177.457 115.125 177.58 115.277 177.729 115.406C177.877 115.535 178.047 115.635 178.238 115.705C178.43 115.775 178.639 115.811 178.865 115.811C179.025 115.811 179.184 115.795 179.34 115.764C179.5 115.732 179.652 115.688 179.797 115.629C179.941 115.566 180.076 115.49 180.201 115.4C180.326 115.311 180.436 115.205 180.529 115.084L181.344 115.963C181.242 116.107 181.109 116.25 180.945 116.391C180.785 116.527 180.594 116.65 180.371 116.76C180.152 116.865 179.908 116.951 179.639 117.018C179.369 117.084 179.078 117.117 178.766 117.117ZM178.572 111.861C178.389 111.861 178.221 111.895 178.068 111.961C177.916 112.023 177.781 112.115 177.664 112.236C177.551 112.357 177.455 112.502 177.377 112.67C177.299 112.838 177.24 113.025 177.201 113.232H179.873V113.104C179.865 112.932 179.832 112.77 179.773 112.617C179.715 112.465 179.631 112.334 179.521 112.225C179.412 112.111 179.277 112.023 179.117 111.961C178.961 111.895 178.779 111.861 178.572 111.861ZM195.459 113.467H191.803V117H190.15V108.469H195.916V109.811H191.803V112.131H195.459V113.467ZM201.863 110.543C202.109 110.543 202.336 110.561 202.543 110.596C202.754 110.627 202.924 110.662 203.053 110.701L202.812 112.324C202.598 112.273 202.377 112.236 202.15 112.213C201.928 112.186 201.715 112.172 201.512 112.172C201.055 112.172 200.688 112.26 200.41 112.436C200.137 112.611 199.932 112.863 199.795 113.191V117H198.166V110.66H199.684L199.76 111.697C200.018 111.338 200.326 111.057 200.686 110.854C201.045 110.646 201.438 110.543 201.863 110.543ZM207.594 117.117C207.105 117.117 206.662 117.037 206.264 116.877C205.865 116.717 205.523 116.5 205.238 116.227C204.953 115.949 204.732 115.625 204.576 115.254C204.424 114.879 204.348 114.479 204.348 114.053V113.818C204.348 113.334 204.424 112.893 204.576 112.494C204.729 112.092 204.941 111.746 205.215 111.457C205.488 111.168 205.812 110.943 206.188 110.783C206.562 110.623 206.971 110.543 207.412 110.543C207.869 110.543 208.275 110.619 208.631 110.771C208.99 110.92 209.293 111.131 209.539 111.404C209.789 111.678 209.979 112.008 210.107 112.395C210.236 112.777 210.301 113.201 210.301 113.666V114.357H206C206.031 114.572 206.094 114.77 206.188 114.949C206.285 115.125 206.408 115.277 206.557 115.406C206.705 115.535 206.875 115.635 207.066 115.705C207.258 115.775 207.467 115.811 207.693 115.811C207.854 115.811 208.012 115.795 208.168 115.764C208.328 115.732 208.48 115.688 208.625 115.629C208.77 115.566 208.904 115.49 209.029 115.4C209.154 115.311 209.264 115.205 209.357 115.084L210.172 115.963C210.07 116.107 209.938 116.25 209.773 116.391C209.613 116.527 209.422 116.65 209.199 116.76C208.98 116.865 208.736 116.951 208.467 117.018C208.197 117.084 207.906 117.117 207.594 117.117ZM207.4 111.861C207.217 111.861 207.049 111.895 206.896 111.961C206.744 112.023 206.609 112.115 206.492 112.236C206.379 112.357 206.283 112.502 206.205 112.67C206.127 112.838 206.068 113.025 206.029 113.232H208.701V113.104C208.693 112.932 208.66 112.77 208.602 112.617C208.543 112.465 208.459 112.334 208.35 112.225C208.24 112.111 208.105 112.023 207.945 111.961C207.789 111.895 207.607 111.861 207.4 111.861ZM214.801 117.117C214.312 117.117 213.869 117.037 213.471 116.877C213.072 116.717 212.73 116.5 212.445 116.227C212.16 115.949 211.939 115.625 211.783 115.254C211.631 114.879 211.555 114.479 211.555 114.053V113.818C211.555 113.334 211.631 112.893 211.783 112.494C211.936 112.092 212.148 111.746 212.422 111.457C212.695 111.168 213.02 110.943 213.395 110.783C213.77 110.623 214.178 110.543 214.619 110.543C215.076 110.543 215.482 110.619 215.838 110.771C216.197 110.92 216.5 111.131 216.746 111.404C216.996 111.678 217.186 112.008 217.314 112.395C217.443 112.777 217.508 113.201 217.508 113.666V114.357H213.207C213.238 114.572 213.301 114.77 213.395 114.949C213.492 115.125 213.615 115.277 213.764 115.406C213.912 115.535 214.082 115.635 214.273 115.705C214.465 115.775 214.674 115.811 214.9 115.811C215.061 115.811 215.219 115.795 215.375 115.764C215.535 115.732 215.688 115.688 215.832 115.629C215.977 115.566 216.111 115.49 216.236 115.4C216.361 115.311 216.471 115.205 216.564 115.084L217.379 115.963C217.277 116.107 217.145 116.25 216.98 116.391C216.82 116.527 216.629 116.65 216.406 116.76C216.188 116.865 215.943 116.951 215.674 117.018C215.404 117.084 215.113 117.117 214.801 117.117ZM214.607 111.861C214.424 111.861 214.256 111.895 214.104 111.961C213.951 112.023 213.816 112.115 213.699 112.236C213.586 112.357 213.49 112.502 213.412 112.67C213.334 112.838 213.275 113.025 213.236 113.232H215.908V113.104C215.9 112.932 215.867 112.77 215.809 112.617C215.75 112.465 215.666 112.334 215.557 112.225C215.447 112.111 215.312 112.023 215.152 111.961C214.996 111.895 214.814 111.861 214.607 111.861ZM220.578 116.057C220.578 115.904 220.604 115.764 220.654 115.635C220.705 115.502 220.779 115.389 220.877 115.295C220.975 115.197 221.094 115.121 221.234 115.066C221.375 115.008 221.533 114.979 221.709 114.979C221.885 114.979 222.043 115.008 222.184 115.066C222.324 115.121 222.441 115.197 222.535 115.295C222.633 115.389 222.707 115.502 222.758 115.635C222.812 115.764 222.84 115.904 222.84 116.057C222.84 116.205 222.812 116.344 222.758 116.473C222.707 116.602 222.633 116.715 222.535 116.812C222.441 116.906 222.324 116.98 222.184 117.035C222.043 117.09 221.885 117.117 221.709 117.117C221.533 117.117 221.375 117.09 221.234 117.035C221.094 116.98 220.975 116.906 220.877 116.812C220.779 116.715 220.705 116.602 220.654 116.473C220.604 116.344 220.578 116.205 220.578 116.057ZM237.717 114.773C237.717 114.621 237.689 114.479 237.635 114.346C237.584 114.213 237.494 114.09 237.365 113.977C237.24 113.859 237.074 113.754 236.867 113.66C236.664 113.562 236.41 113.473 236.105 113.391C235.734 113.289 235.379 113.162 235.039 113.01C234.703 112.857 234.406 112.674 234.148 112.459C233.891 112.244 233.684 111.994 233.527 111.709C233.375 111.424 233.299 111.096 233.299 110.725C233.299 110.365 233.375 110.039 233.527 109.746C233.68 109.453 233.891 109.203 234.16 108.996C234.43 108.789 234.748 108.631 235.115 108.521C235.482 108.408 235.881 108.352 236.311 108.352C236.756 108.352 237.162 108.416 237.529 108.545C237.9 108.674 238.219 108.855 238.484 109.09C238.75 109.32 238.957 109.596 239.105 109.916C239.254 110.236 239.328 110.588 239.328 110.971H237.723C237.715 110.779 237.68 110.604 237.617 110.443C237.559 110.283 237.469 110.146 237.348 110.033C237.23 109.916 237.082 109.826 236.902 109.764C236.727 109.697 236.52 109.664 236.281 109.664C236.062 109.664 235.867 109.691 235.695 109.746C235.527 109.797 235.385 109.871 235.268 109.969C235.15 110.062 235.061 110.176 234.998 110.309C234.939 110.438 234.91 110.578 234.91 110.73C234.91 110.891 234.949 111.035 235.027 111.164C235.109 111.293 235.227 111.41 235.379 111.516C235.531 111.617 235.715 111.711 235.93 111.797C236.148 111.883 236.395 111.963 236.668 112.037C237.059 112.15 237.418 112.289 237.746 112.453C238.074 112.617 238.355 112.812 238.59 113.039C238.828 113.262 239.012 113.518 239.141 113.807C239.273 114.092 239.34 114.41 239.34 114.762C239.34 115.137 239.264 115.471 239.111 115.764C238.963 116.053 238.756 116.299 238.49 116.502C238.225 116.701 237.908 116.854 237.541 116.959C237.174 117.061 236.773 117.111 236.34 117.111C236.07 117.111 235.801 117.086 235.531 117.035C235.266 116.988 235.01 116.914 234.764 116.812C234.521 116.711 234.295 116.584 234.084 116.432C233.873 116.279 233.689 116.102 233.533 115.898C233.381 115.695 233.26 115.465 233.17 115.207C233.084 114.949 233.041 114.664 233.041 114.352H234.658C234.666 114.609 234.711 114.83 234.793 115.014C234.875 115.197 234.988 115.348 235.133 115.465C235.281 115.582 235.457 115.668 235.66 115.723C235.867 115.777 236.094 115.805 236.34 115.805C236.559 115.805 236.752 115.779 236.92 115.729C237.092 115.678 237.236 115.607 237.354 115.518C237.471 115.428 237.561 115.32 237.623 115.195C237.686 115.066 237.717 114.926 237.717 114.773ZM243.629 117.117C243.141 117.117 242.697 117.037 242.299 116.877C241.9 116.717 241.559 116.5 241.273 116.227C240.988 115.949 240.768 115.625 240.611 115.254C240.459 114.879 240.383 114.479 240.383 114.053V113.818C240.383 113.334 240.459 112.893 240.611 112.494C240.764 112.092 240.977 111.746 241.25 111.457C241.523 111.168 241.848 110.943 242.223 110.783C242.598 110.623 243.006 110.543 243.447 110.543C243.904 110.543 244.311 110.619 244.666 110.771C245.025 110.92 245.328 111.131 245.574 111.404C245.824 111.678 246.014 112.008 246.143 112.395C246.271 112.777 246.336 113.201 246.336 113.666V114.357H242.035C242.066 114.572 242.129 114.77 242.223 114.949C242.32 115.125 242.443 115.277 242.592 115.406C242.74 115.535 242.91 115.635 243.102 115.705C243.293 115.775 243.502 115.811 243.729 115.811C243.889 115.811 244.047 115.795 244.203 115.764C244.363 115.732 244.516 115.688 244.66 115.629C244.805 115.566 244.939 115.49 245.064 115.4C245.189 115.311 245.299 115.205 245.393 115.084L246.207 115.963C246.105 116.107 245.973 116.25 245.809 116.391C245.648 116.527 245.457 116.65 245.234 116.76C245.016 116.865 244.771 116.951 244.502 117.018C244.232 117.084 243.941 117.117 243.629 117.117ZM243.436 111.861C243.252 111.861 243.084 111.895 242.932 111.961C242.779 112.023 242.645 112.115 242.527 112.236C242.414 112.357 242.318 112.502 242.24 112.67C242.162 112.838 242.104 113.025 242.064 113.232H244.736V113.104C244.729 112.932 244.695 112.77 244.637 112.617C244.578 112.465 244.494 112.334 244.385 112.225C244.275 112.111 244.141 112.023 243.98 111.961C243.824 111.895 243.643 111.861 243.436 111.861ZM250.566 115.816C250.727 115.816 250.879 115.793 251.023 115.746C251.168 115.699 251.295 115.633 251.404 115.547C251.514 115.461 251.598 115.357 251.656 115.236C251.719 115.115 251.746 114.98 251.738 114.832H253.273C253.281 115.16 253.213 115.465 253.068 115.746C252.928 116.027 252.734 116.27 252.488 116.473C252.242 116.676 251.955 116.836 251.627 116.953C251.303 117.066 250.959 117.123 250.596 117.123C250.104 117.123 249.672 117.041 249.301 116.877C248.93 116.709 248.619 116.48 248.369 116.191C248.123 115.902 247.936 115.564 247.807 115.178C247.682 114.787 247.619 114.369 247.619 113.924V113.748C247.619 113.303 247.682 112.887 247.807 112.5C247.932 112.109 248.119 111.77 248.369 111.48C248.619 111.191 248.928 110.963 249.295 110.795C249.666 110.627 250.096 110.543 250.584 110.543C250.975 110.543 251.336 110.602 251.668 110.719C252 110.836 252.285 111.002 252.523 111.217C252.766 111.428 252.953 111.686 253.086 111.99C253.219 112.291 253.281 112.629 253.273 113.004H251.738C251.746 112.848 251.723 112.699 251.668 112.559C251.613 112.418 251.533 112.297 251.428 112.195C251.322 112.094 251.195 112.014 251.047 111.955C250.898 111.893 250.736 111.861 250.561 111.861C250.303 111.861 250.09 111.914 249.922 112.02C249.754 112.125 249.619 112.266 249.518 112.441C249.42 112.617 249.35 112.818 249.307 113.045C249.268 113.271 249.248 113.506 249.248 113.748V113.924C249.248 114.17 249.268 114.408 249.307 114.639C249.346 114.865 249.414 115.066 249.512 115.242C249.613 115.414 249.748 115.553 249.916 115.658C250.088 115.764 250.305 115.816 250.566 115.816ZM259.01 116.109C258.795 116.426 258.535 116.674 258.23 116.854C257.93 117.033 257.6 117.123 257.24 117.123C256.912 117.123 256.611 117.072 256.338 116.971C256.064 116.869 255.83 116.709 255.635 116.49C255.439 116.268 255.287 115.986 255.178 115.646C255.072 115.303 255.02 114.891 255.02 114.41V110.66H256.648V114.422C256.648 114.68 256.666 114.896 256.701 115.072C256.74 115.248 256.801 115.391 256.883 115.5C256.965 115.605 257.072 115.682 257.205 115.729C257.338 115.775 257.5 115.799 257.691 115.799C258.016 115.799 258.279 115.738 258.482 115.617C258.686 115.492 258.84 115.322 258.945 115.107V110.66H260.58V117H259.104L259.01 116.109ZM266.727 110.543C266.973 110.543 267.199 110.561 267.406 110.596C267.617 110.627 267.787 110.662 267.916 110.701L267.676 112.324C267.461 112.273 267.24 112.236 267.014 112.213C266.791 112.186 266.578 112.172 266.375 112.172C265.918 112.172 265.551 112.26 265.273 112.436C265 112.611 264.795 112.863 264.658 113.191V117H263.029V110.66H264.547L264.623 111.697C264.881 111.338 265.189 111.057 265.549 110.854C265.908 110.646 266.301 110.543 266.727 110.543ZM272.457 117.117C271.969 117.117 271.525 117.037 271.127 116.877C270.729 116.717 270.387 116.5 270.102 116.227C269.816 115.949 269.596 115.625 269.439 115.254C269.287 114.879 269.211 114.479 269.211 114.053V113.818C269.211 113.334 269.287 112.893 269.439 112.494C269.592 112.092 269.805 111.746 270.078 111.457C270.352 111.168 270.676 110.943 271.051 110.783C271.426 110.623 271.834 110.543 272.275 110.543C272.732 110.543 273.139 110.619 273.494 110.771C273.854 110.92 274.156 111.131 274.402 111.404C274.652 111.678 274.842 112.008 274.971 112.395C275.1 112.777 275.164 113.201 275.164 113.666V114.357H270.863C270.895 114.572 270.957 114.77 271.051 114.949C271.148 115.125 271.271 115.277 271.42 115.406C271.568 115.535 271.738 115.635 271.93 115.705C272.121 115.775 272.33 115.811 272.557 115.811C272.717 115.811 272.875 115.795 273.031 115.764C273.191 115.732 273.344 115.688 273.488 115.629C273.633 115.566 273.768 115.49 273.893 115.4C274.018 115.311 274.127 115.205 274.221 115.084L275.035 115.963C274.934 116.107 274.801 116.25 274.637 116.391C274.477 116.527 274.285 116.65 274.062 116.76C273.844 116.865 273.6 116.951 273.33 117.018C273.061 117.084 272.77 117.117 272.457 117.117ZM272.264 111.861C272.08 111.861 271.912 111.895 271.76 111.961C271.607 112.023 271.473 112.115 271.355 112.236C271.242 112.357 271.146 112.502 271.068 112.67C270.99 112.838 270.932 113.025 270.893 113.232H273.564V113.104C273.557 112.932 273.523 112.77 273.465 112.617C273.406 112.465 273.322 112.334 273.213 112.225C273.104 112.111 272.969 112.023 272.809 111.961C272.652 111.895 272.471 111.861 272.264 111.861ZM289.66 114.328C289.633 114.758 289.539 115.145 289.379 115.488C289.223 115.832 289.012 116.125 288.746 116.367C288.48 116.609 288.164 116.797 287.797 116.93C287.43 117.059 287.023 117.123 286.578 117.123C286.074 117.123 285.627 117.031 285.236 116.848C284.846 116.66 284.518 116.4 284.252 116.068C283.986 115.732 283.783 115.33 283.643 114.861C283.502 114.393 283.432 113.877 283.432 113.314V112.166C283.432 111.6 283.506 111.082 283.654 110.613C283.803 110.145 284.014 109.742 284.287 109.406C284.561 109.07 284.891 108.811 285.277 108.627C285.668 108.439 286.105 108.346 286.59 108.346C287.059 108.346 287.475 108.412 287.838 108.545C288.205 108.678 288.518 108.867 288.775 109.113C289.033 109.359 289.236 109.66 289.385 110.016C289.533 110.371 289.627 110.771 289.666 111.217H288.025C288.01 110.963 287.971 110.74 287.908 110.549C287.85 110.357 287.762 110.199 287.645 110.074C287.531 109.945 287.387 109.85 287.211 109.787C287.039 109.721 286.832 109.688 286.59 109.688C286.336 109.688 286.115 109.742 285.928 109.852C285.74 109.961 285.584 110.121 285.459 110.332C285.338 110.543 285.248 110.803 285.189 111.111C285.131 111.416 285.102 111.764 285.102 112.154V113.314C285.102 114.154 285.219 114.775 285.453 115.178C285.691 115.58 286.066 115.781 286.578 115.781C287.008 115.781 287.348 115.668 287.598 115.441C287.848 115.211 287.986 114.84 288.014 114.328H289.66ZM292.631 111.533C292.842 111.225 293.098 110.982 293.398 110.807C293.703 110.631 294.043 110.543 294.418 110.543C294.75 110.543 295.055 110.594 295.332 110.695C295.609 110.793 295.848 110.947 296.047 111.158C296.246 111.369 296.4 111.641 296.51 111.973C296.623 112.301 296.68 112.697 296.68 113.162V117H295.051V113.15C295.051 112.924 295.021 112.729 294.963 112.564C294.908 112.4 294.828 112.268 294.723 112.166C294.617 112.064 294.49 111.99 294.342 111.943C294.193 111.893 294.025 111.867 293.838 111.867C293.564 111.867 293.326 111.916 293.123 112.014C292.924 112.111 292.76 112.248 292.631 112.424V117H291.002V108H292.631V111.533ZM302.17 117C302.131 116.922 302.098 116.832 302.07 116.73C302.043 116.629 302.02 116.521 302 116.408C301.91 116.506 301.807 116.598 301.689 116.684C301.572 116.77 301.441 116.846 301.297 116.912C301.156 116.975 301 117.023 300.828 117.059C300.656 117.098 300.471 117.117 300.271 117.117C299.947 117.117 299.648 117.07 299.375 116.977C299.105 116.883 298.873 116.752 298.678 116.584C298.482 116.416 298.33 116.217 298.221 115.986C298.111 115.752 298.057 115.498 298.057 115.225C298.057 114.557 298.305 114.041 298.801 113.678C299.301 113.311 300.045 113.127 301.033 113.127H301.941V112.752C301.941 112.447 301.842 112.207 301.643 112.031C301.443 111.852 301.156 111.762 300.781 111.762C300.449 111.762 300.207 111.834 300.055 111.979C299.902 112.119 299.826 112.309 299.826 112.547H298.197C298.197 112.277 298.256 112.021 298.373 111.779C298.494 111.537 298.668 111.324 298.895 111.141C299.125 110.957 299.404 110.812 299.732 110.707C300.064 110.598 300.443 110.543 300.869 110.543C301.252 110.543 301.607 110.59 301.936 110.684C302.268 110.777 302.555 110.916 302.797 111.1C303.039 111.283 303.229 111.516 303.365 111.797C303.502 112.074 303.57 112.396 303.57 112.764V115.482C303.57 115.822 303.592 116.104 303.635 116.326C303.678 116.549 303.74 116.74 303.822 116.9V117H302.17ZM300.617 115.857C300.781 115.857 300.934 115.838 301.074 115.799C301.215 115.76 301.342 115.709 301.455 115.646C301.568 115.584 301.666 115.514 301.748 115.436C301.83 115.354 301.895 115.271 301.941 115.189V114.1H301.109C300.855 114.1 300.639 114.125 300.459 114.176C300.279 114.223 300.133 114.291 300.02 114.381C299.906 114.467 299.822 114.572 299.768 114.697C299.713 114.818 299.686 114.951 299.686 115.096C299.686 115.314 299.762 115.496 299.914 115.641C300.07 115.785 300.305 115.857 300.617 115.857ZM308.404 109.107V110.66H310.771V111.861H308.404V114.586C308.404 114.816 308.43 115.01 308.48 115.166C308.535 115.318 308.611 115.441 308.709 115.535C308.807 115.625 308.924 115.689 309.061 115.729C309.201 115.768 309.357 115.787 309.529 115.787C309.654 115.787 309.781 115.781 309.91 115.77C310.043 115.758 310.168 115.744 310.285 115.729C310.406 115.709 310.518 115.689 310.619 115.67C310.725 115.65 310.814 115.631 310.889 115.611L311.047 116.73C310.934 116.797 310.801 116.855 310.648 116.906C310.496 116.953 310.334 116.992 310.162 117.023C309.99 117.055 309.811 117.078 309.623 117.094C309.439 117.113 309.258 117.123 309.078 117.123C308.73 117.123 308.414 117.078 308.129 116.988C307.848 116.895 307.605 116.752 307.402 116.561C307.203 116.365 307.049 116.119 306.939 115.822C306.83 115.521 306.775 115.162 306.775 114.744V111.861H305.328V110.66H306.775V109.107H308.404Z" fill="white"/>
<path d="M163.5 45.6651C163.5 48.6651 162.862 46.6651 160.362 45.1651C159.257 45.1651 158 44.7696 158 43.6651C158 42.5605 159.395 43.1651 160.5 43.1651C161.605 43.1651 163.5 42.6651 163.5 45.6651Z" fill="#E1E1E1"/>
<path d="M103.5 45.6651C103.5 48.6651 102.862 46.6651 100.362 45.1651C99.2572 45.1651 98 44.7696 98 43.6651C98 42.5605 99.3954 43.1651 100.5 43.1651C101.605 43.1651 103.5 42.6651 103.5 45.6651Z" fill="#E1E1E1"/>
</svg>
